 <svg  version="1.0" xmlns="http://www.w3.org/2000/svg"  width="300.000000pt" height="150.000000pt" viewBox="0 0 300.000000 150.000000"  preserveAspectRatio="xMidYMid meet">  <g transform="translate(0.000000,150.000000) scale(0.100000,-0.100000)" fill="#ff8585" stroke="none"> <path d="M581 1004 c-34 -28 -47 -76 -33 -114 5 -14 33 -54 61 -89 28 -35 51 -72 51 -82 0 -27 -33 -41 -56 -24 -39 30 -83 10 -67 -30 8 -22 56 -45 92 -45 40 0 89 43 97 85 7 39 -2 59 -68 143 -32 41 -48 71 -46 85 3 19 9 22 53 22 44 0 50 3 53 22 8 52 -85 71 -137 27z"/> <path d="M1144 966 c-10 -26 1 -51 22 -54 27 -4 47 21 39 48 -7 24 -53 28 -61 6z"/> <path d="M1272 968 c-19 -19 -17 -312 3 -328 16 -13 55 -5 56 13 4 65 0 307 -5 316 -9 15 -39 14 -54 -1z"/> <path d="M1725 963 c-56 -14 -70 -64 -31 -110 l24 -28 -39 -36 c-31 -29 -39 -43 -39 -72 0 -70 90 -100 172 -58 36 18 37 18 57 -2 28 -28 40 -13 13 16 -17 18 -19 26 -10 35 6 6 9 15 5 19 -4 4 -12 2 -18 -4 -7 -7 -25 5 -58 40 l-49 51 34 32 c22 20 34 41 34 57 0 25 -23 57 -40 57 -5 0 -14 2 -22 4 -7 2 -22 1 -33 -1z m65 -38 c16 -19 4 -52 -25 -71 -28 -18 -40 -13 -61 27 -12 24 -13 34 -3 45 15 18 73 18 89 -1z m38 -227 c5 -12 -61 -38 -98 -38 -35 0 -70 31 -70 61 0 12 16 36 36 55 l37 33 46 -51 c25 -28 48 -55 49 -60z"/> <path d="M1952 952 c-16 -10 -13 -301 3 -305 6 -1 11 25 13 59 l3 62 61 4 c51 4 65 9 85 32 23 27 30 75 17 111 -4 8 -19 22 -35 30 -30 16 -126 20 -147 7z m143 -37 c30 -29 32 -64 6 -96 -14 -18 -31 -23 -77 -27 l-59 -4 2 73 c1 41 2 75 2 77 1 1 24 2 51 2 41 0 56 -5 75 -25z"/> <path d="M787 873 c-4 -3 -7 -55 -7 -114 0 -97 2 -109 19 -119 35 -18 52 12 50 91 -2 71 10 102 37 92 11 -4 14 -26 14 -88 0 -76 2 -84 20 -90 37 -12 50 11 50 90 0 51 4 76 15 85 26 21 35 0 35 -83 0 -93 7 -110 41 -105 23 3 24 7 27 93 3 132 -27 174 -102 136 -28 -15 -36 -16 -40 -5 -7 18 -68 18 -85 2 -10 -11 -14 -10 -22 5 -10 17 -40 23 -52 10z"/> <path d="M1153 873 c-9 -3 -13 -36 -13 -113 0 -118 10 -142 49 -120 19 10 21 20 21 113 0 118 -10 139 -57 120z"/> <path d="M1409 841 c-24 -24 -29 -38 -29 -76 0 -91 43 -129 141 -123 46 3 54 6 54 23 0 17 -7 20 -47 21 -48 1 -78 16 -78 40 0 10 14 12 63 8 78 -6 92 2 83 51 -11 58 -45 85 -106 85 -44 0 -56 -5 -81 -29z m109 -23 c25 -25 14 -43 -28 -43 -32 -1 -40 3 -40 17 0 30 46 48 68 26z"/> <path d="M2188 863 c-39 -10 -14 -20 50 -19 l67 1 3 -32 c3 -27 0 -31 -16 -26 -23 6 -99 -14 -107 -28 -4 -5 -10 -23 -15 -39 -19 -65 71 -109 120 -60 25 25 29 25 23 -1 -4 -15 -2 -20 7 -17 22 7 15 199 -8 216 -15 11 -88 15 -124 5z m124 -128 c-6 -60 -88 -98 -115 -54 -27 43 21 90 88 86 27 -2 30 -5 27 -32z"/> <path d="M2365 853 c4 -10 23 -58 42 -108 l35 -90 -17 -48 c-14 -41 -15 -71 -1 -56 3 3 109 247 133 307 3 6 -1 12 -8 12 -8 0 -29 -39 -49 -91 -19 -50 -37 -92 -40 -94 -3 -2 -21 39 -40 91 -21 55 -41 94 -49 94 -9 0 -11 -6 -6 -17z"/> <path d="M443 573 c-14 -36 106 -103 187 -103 72 0 190 69 177 103 -9 24 -35 21 -78 -9 -53 -36 -132 -43 -186 -15 -23 11 -44 25 -48 31 -10 16 -45 12 -52 -7z"/> </g> </svg> 